<?xml version="1.0" standalone="no"?><!DOCTYPE svg PUBLIC "-//W3C//DTD SVG 1.1//EN" "http://www.w3.org/Graphics/SVG/1.1/DTD/svg11.dtd"><svg t="1723263178280" class="icon" viewBox="0 0 1024 1024" version="1.1" xmlns="http://www.w3.org/2000/svg" p-id="1465" xmlns:xlink="http://www.w3.org/1999/xlink" width="200" height="200"><path d="M998.912 694.23616 998.912 215.06048c0-103.296-83.82464-187.12064-187.18208-187.12064L212.72064 27.93984C109.42976 27.93984 25.6 111.76448 25.6 215.06048l0 599.00928c0 103.29088 83.7632 187.11552 187.12064 187.11552l599.00928 0c92.03712 0 168.6272-66.54976 184.25856-154.08128-49.6384-21.4784-264.73984-114.37056-376.79616-167.84384-85.27872 103.30112-174.58688 165.28896-309.20704 165.28896s-224.47104-82.9184-213.70368-184.38656c7.1168-66.6112 52.80256-175.49824 251.23328-156.8256 104.57088 9.79456 152.448 29.32736 237.73696 57.48736 22.07744-40.44288 40.38144-84.98176 54.31296-132.36736L261.38624 428.45696l0-37.47328 187.11552 0L448.50176 323.70176 220.2624 323.70176l0-41.2416 228.23936 0L448.50176 185.37472c0 0 2.06848-15.21152 18.86208-15.21152l93.55776 0 0 112.29696 243.31776 0 0 41.2416-243.31776 0 0 67.28192 198.49728 0c-18.2528 74.27584-45.93152 142.52544-80.60416 202.14272C736.48128 613.9904 998.912 694.23616 998.912 694.23616L998.912 694.23616 998.912 694.23616 998.912 694.23616zM295.08608 780.30336c-142.22336 0-164.73088-89.7792-157.18912-127.31904 7.48032-37.3504 48.6656-86.07232 127.74912-86.07232 90.88 0 172.27264 23.23456 269.96736 70.79936C466.9952 727.08096 382.68416 780.30336 295.08608 780.30336L295.08608 780.30336 295.08608 780.30336z" fill="#262536" p-id="1466"></path></svg>